<?xml version="1.0" standalone="no"?>
<!DOCTYPE svg PUBLIC "-//W3C//DTD SVG 20010904//EN"
 "http://www.w3.org/TR/2001/REC-SVG-20010904/DTD/svg10.dtd">
<svg version="1.0" xmlns="http://www.w3.org/2000/svg"
 width="500.000000pt" height="500.000000pt" viewBox="0 0 500.000000 500.000000"
 preserveAspectRatio="xMidYMid meet">

<g transform="translate(0.000000,500.000000) scale(0.100000,-0.100000)"
fill="#000000" stroke="none">
<path d="M1666 3313 c-152 -32 -294 -110 -406 -222 -211 -212 -293 -498 -225
-790 l17 -73 70 68 c58 58 68 73 64 94 -43 195 -12 403 85 566 74 126 224 255
358 309 81 33 139 46 246 55 l90 7 -115 1 c-67 0 -144 -6 -184 -15z"/>
<path d="M1825 3264 c-292 -47 -523 -255 -584 -526 -13 -55 3 -38 51 55 74
142 207 256 361 308 88 30 232 37 331 15 96 -22 200 -73 265 -132 l50 -45 101
3 102 3 -46 63 c-77 104 -226 201 -363 236 -64 17 -216 28 -268 20z"/>
<path d="M1446 2541 c-290 -290 -367 -372 -362 -387 3 -11 23 -47 44 -81 l38
-62 327 327 328 328 -3 122 -3 122 -369 -369z"/>
<path d="M3675 2839 c-118 -15 -187 -81 -187 -180 0 -63 30 -111 87 -139 46
-22 200 -54 216 -44 5 3 9 1 9 -4 0 -6 12 -13 26 -16 41 -11 74 -50 74 -88 0
-72 -57 -108 -167 -108 -80 0 -137 23 -176 69 l-26 32 -36 -23 c-19 -13 -35
-25 -35 -28 0 -20 70 -83 118 -107 51 -25 68 -28 152 -28 149 1 234 49 260
147 23 83 -16 165 -96 203 -19 9 -70 23 -112 31 -171 33 -202 49 -202 108 0
56 61 96 147 96 61 0 118 -18 144 -46 l21 -23 39 26 40 26 -23 25 c-53 57
-162 85 -273 71z"/>
<path d="M2943 2821 c-104 -36 -176 -108 -205 -205 -21 -69 -15 -193 12 -253
13 -30 27 -50 33 -46 5 3 7 1 3 -5 -10 -16 37 -65 91 -94 138 -75 335 -47 424
62 89 107 100 288 25 412 -75 126 -236 180 -383 129z m221 -96 c45 -22 92 -82
107 -139 19 -69 6 -169 -28 -224 -74 -120 -251 -137 -354 -33 -56 55 -73 108
-67 201 8 101 51 170 128 205 47 21 162 16 214 -10z"/>
<path d="M2080 2510 l0 -320 50 0 50 0 0 99 0 100 144 3 c142 3 145 3 187 33
109 77 124 254 27 341 -30 28 -86 56 -98 49 -5 -3 -11 -1 -15 5 -4 6 -72 10
-176 10 l-169 0 0 -320z m368 210 c86 -53 79 -190 -12 -231 -32 -14 -66 -19
-148 -19 l-108 0 0 135 0 135 118 0 c100 0 122 -3 150 -20z"/>
<path d="M1510 2267 l-305 -308 64 -60 65 -60 243 244 244 243 -3 125 -3 124
-305 -308z"/>
<path d="M1717 2141 c-63 -63 -96 -104 -91 -112 5 -8 3 -9 -5 -4 -9 5 -51 -32
-126 -108 l-114 -115 81 -41 82 -42 138 138 139 139 -3 122 -3 122 -98 -99z"/>
<path d="M2243 2021 c-42 -38 -180 -118 -196 -113 -5 1 -6 -2 -2 -8 4 -7 12
-7 24 0 10 5 21 7 24 4 7 -8 154 52 191 78 32 23 35 25 76 58 l25 19 -50 0
c-44 0 -55 -5 -92 -38z"/>
<path d="M2395 1998 c-77 -65 -196 -128 -291 -152 -86 -22 -218 -30 -294 -17
l-65 11 -69 -69 -69 -69 44 -14 c71 -21 330 -17 404 5 90 28 216 88 208 100
-3 6 -1 7 6 3 24 -15 187 128 252 222 l30 42 -43 -1 c-38 0 -52 -8 -113 -61z"/>
</g>
</svg>
